<?xml version="1.0" standalone="no"?>
<!DOCTYPE svg PUBLIC "-//W3C//DTD SVG 20010904//EN"
 "http://www.w3.org/TR/2001/REC-SVG-20010904/DTD/svg10.dtd">
<svg version="1.0" xmlns="http://www.w3.org/2000/svg"
 width="1920.000000pt" height="1080.000000pt" viewBox="0 0 1920.000000 1080.000000"
 preserveAspectRatio="xMidYMid meet">

<g transform="translate(0.000000,1080.000000) scale(0.100000,-0.100000)"
fill="#000000" stroke="none">
<path d="M0 5400 l0 -5400 7830 0 7830 0 0 76 c0 75 1 77 39 115 l39 39 1731
0 1731 0 0 5285 0 5285 -9600 0 -9600 0 0 -5400z m10425 3589 c4 -5 17 -14 29
-19 20 -7 24 -17 29 -87 6 -82 -4 -204 -22 -263 -14 -45 -14 -115 0 -160 19
-64 10 -177 -27 -320 -22 -86 -40 -187 -49 -280 -39 -400 -49 -486 -90 -732
-70 -420 -145 -740 -234 -988 -31 -89 -60 -196 -107 -395 -15 -66 -31 -124
-36 -130 -4 -5 -8 -18 -8 -28 0 -21 -30 -77 -41 -77 -10 0 -17 76 -28 310 -24
504 -59 1014 -87 1280 -29 279 -57 453 -90 567 -13 46 -35 122 -49 169 -38
132 -47 203 -35 282 6 37 15 71 20 76 17 17 118 -52 225 -155 83 -80 128 -114
182 -141 l72 -36 11 34 c13 39 21 25 -100 175 -70 88 -120 157 -146 204 -6 11
-30 56 -54 100 -24 44 -60 108 -82 142 -38 63 -45 79 -30 69 9 -6 80 13 97 25
6 4 40 23 78 43 107 57 110 59 151 94 8 6 19 12 25 12 5 0 11 3 13 8 2 4 22
20 45 36 24 16 53 39 65 51 13 12 63 50 113 84 88 60 143 78 160 50z m-1375
-707 c0 -4 -25 -50 -55 -101 -30 -51 -55 -95 -55 -96 0 -2 14 3 30 12 23 11
34 12 44 4 7 -6 15 -9 18 -6 5 6 61 -61 92 -109 21 -33 25 -103 13 -216 -5
-41 -15 -138 -23 -215 -9 -77 -19 -293 -24 -480 -5 -187 -16 -414 -24 -505 -9
-91 -20 -298 -26 -460 -10 -306 -15 -360 -30 -360 -11 0 -43 138 -34 151 3 5
1 15 -4 22 -5 7 -13 33 -16 59 -4 26 -12 50 -17 54 -6 3 -8 13 -4 22 3 8 1 18
-4 21 -9 6 -79 281 -147 581 -20 91 -63 275 -96 410 -32 135 -76 331 -98 435
-57 277 -87 527 -61 510 6 -3 14 3 20 12 8 14 12 16 22 6 7 -7 21 -13 31 -13
10 0 26 -16 38 -37 45 -82 72 -123 79 -123 4 0 17 21 29 46 20 40 25 44 39 32
19 -15 19 -14 -26 74 -22 46 -31 73 -26 85 5 10 7 24 6 30 -1 10 4 10 23 2 19
-9 29 -8 47 5 13 9 34 16 47 16 15 0 21 4 16 12 -4 7 -3 8 4 4 6 -4 9 -14 6
-24 -5 -15 -4 -15 8 -1 7 9 19 14 26 12 7 -3 10 1 7 10 -3 7 1 20 10 27 10 8
15 9 15 1 0 -6 5 -11 11 -11 6 0 8 7 5 16 -3 8 -2 12 4 9 5 -3 24 14 42 40 32
46 38 51 38 37z"/>
<path d="M15827 154 c-11 -11 -8 -49 5 -62 18 -18 133 -15 152 4 20 20 21 54
1 54 -8 0 -15 -9 -15 -20 0 -28 -47 -28 -52 0 -4 27 -22 27 -26 0 -5 -29 -44
-23 -52 8 -3 13 -8 20 -13 16z"/>
<path d="M16059 132 c-20 -18 -29 -33 -24 -41 5 -9 15 -5 36 15 l29 28 29 -28
c39 -37 53 -15 15 25 -35 36 -46 36 -85 1z"/>
<path d="M16406 153 c-12 -13 -6 -61 10 -67 9 -3 42 -6 75 -6 46 0 59 3 59 15
0 12 -13 15 -60 15 -53 0 -60 2 -60 19 0 21 -13 34 -24 24z"/>
<path d="M16599 156 c0 -1 -2 -15 -5 -33 -4 -33 12 -55 21 -30 4 9 25 14 63
16 64 2 82 12 62 36 -10 12 -29 15 -76 14 -35 -1 -64 -2 -65 -3z"/>
<path d="M16807 132 c-46 -48 -33 -71 15 -25 l28 26 25 -27 c33 -35 55 -24 23
12 -45 51 -54 53 -91 14z"/>
<path d="M16965 145 c-3 -8 -7 -22 -10 -31 -8 -26 5 -37 25 -19 12 11 29 15
50 11 39 -6 80 8 80 28 0 19 -22 26 -86 26 -40 0 -56 -4 -59 -15z"/>
<path d="M17154 146 c-3 -8 -4 -25 -2 -38 3 -22 7 -23 78 -23 l75 0 -4 30 c-1
17 -5 33 -8 38 -2 4 -33 7 -69 7 -47 0 -66 -4 -70 -14z"/>
<path d="M17346 129 c-8 -39 3 -58 19 -35 11 14 19 15 56 6 69 -17 71 -17 74
13 5 35 -18 47 -88 47 -53 0 -55 -1 -61 -31z"/>
<path d="M17541 151 c-9 -6 -11 -15 -6 -27 5 -11 9 -23 9 -29 1 -6 32 -10 71
-10 l70 0 0 35 0 35 -65 3 c-36 1 -71 -2 -79 -7z"/>
<path d="M17957 153 c-11 -10 -8 -61 3 -68 6 -4 10 10 10 34 0 42 -2 46 -13
34z"/>
<path d="M18017 153 c-2 -5 -3 -21 -3 -38 1 -29 3 -30 55 -33 78 -4 101 3 101
33 0 14 -8 29 -19 35 -23 12 -128 14 -134 3z m123 -33 c0 -5 -22 -10 -50 -10
-27 0 -50 5 -50 10 0 6 23 10 50 10 28 0 50 -4 50 -10z"/>
<path d="M18219 158 c-18 -64 -1 -80 82 -76 l63 3 0 35 0 35 -72 3 c-40 2 -72
2 -73 0z"/>
<path d="M18498 149 c-22 -12 -23 -42 -4 -58 17 -15 142 -11 139 4 -2 6 -32
11 -68 13 -84 4 -85 22 -1 22 63 0 92 12 60 24 -25 10 -107 6 -126 -5z"/>
<path d="M18686 144 c-35 -35 -4 -64 69 -64 50 0 85 16 85 39 0 38 -122 58
-154 25z m119 -24 c4 -6 -15 -10 -49 -10 -31 0 -56 5 -56 10 0 6 22 10 49 10
28 0 53 -4 56 -10z"/>
<path d="M18877 153 c-14 -13 -7 -63 8 -63 8 0 15 8 15 17 0 14 3 13 23 -5 29
-27 39 -27 63 -1 l18 20 8 -22 c12 -30 31 -11 26 27 -4 37 -19 40 -54 10 l-29
-24 -28 24 c-29 25 -39 28 -50 17z"/>
<path d="M16207 130 c-9 -35 18 -50 90 -50 47 0 64 3 61 13 -3 7 -27 13 -61
15 -49 3 -57 6 -57 22 0 26 -26 26 -33 0z"/>
<path d="M17730 125 c0 -14 8 -29 19 -35 25 -13 117 -13 142 0 23 13 26 60 4
60 -8 0 -15 -9 -15 -20 0 -13 -7 -20 -20 -20 -14 0 -20 7 -20 21 0 14 -5 19
-17 17 -10 -2 -17 -11 -17 -21 1 -12 -6 -17 -22 -17 -17 0 -24 6 -24 20 0 11
-7 20 -15 20 -9 0 -15 -9 -15 -25z"/>
<path d="M16090 105 c0 -8 5 -15 10 -15 6 0 10 7 10 15 0 8 -4 15 -10 15 -5 0
-10 -7 -10 -15z"/>
<path d="M16837 113 c-12 -11 -8 -23 8 -23 8 0 15 7 15 15 0 16 -12 20 -23 8z"/>
<path d="M18410 95 c0 -9 5 -15 11 -13 6 2 11 8 11 13 0 5 -5 11 -11 13 -6 2
-11 -4 -11 -13z"/>
</g>
</svg>
